<?xml version="1.0" encoding="utf-8"?>
<!-- Generator: Adobe Illustrator 24.0.2, SVG Export Plug-In . SVG Version: 6.00 Build 0)  -->
<svg version="1.1" id="Layer_1" xmlns="http://www.w3.org/2000/svg" xmlns:xlink="http://www.w3.org/1999/xlink" x="0px" y="0px"
	 viewBox="0 0 50 30" style="enable-background:new 0 0 50 30;" xml:space="preserve">
<style type="text/css">
	.st0{fill:#FFFFFF;}
</style>
<g>
	<path class="st0" d="M21.3,15.7c0-0.5,0.2-2.9,0.2-3.4c0-0.2,0.1-1.5,0.1-1.6c0-0.4,0.2-0.7,0.4-0.8s0.3-0.1,0.4-0.2
		s0.3-0.1,0.4-0.2c0.3-0.1,0.6-0.3,0.9-0.3c0.1,0,0.3,0.1,0.4,0.2l0.1,0.1c0.3,0.2,0.3,0.5,0.4,1c0,0.3,0.1,0.6,0.1,0.9
		s0.7,6.9,1,6.9c0.2,0,2-3.7,2-3.9c0.3-0.6,0.6-1.3,1-1.8c0.2-0.3,1.3-0.6,1.5-0.6c0.3,0,0.6,0.1,0.8,0.3c0.1,0.1,0.1,0.5,0,0.8
		c-0.2,2.2,0.1,5.1,0.2,5.2v0.1c0,0.1,0.1,0.1,0.1,0l0.1-0.1c0.1-0.2,1.3-3.4,1.5-4.2c0.1-0.4,0.3-0.6,0.6-0.8
		c0.4-0.2,0.8-0.4,1.3-0.4c0.1,0,0.4,0.4,0.4,0.6c0.1,0.5,0.3,4.4,0.4,5s0.4,1.3,0.7,0.1c0.1-0.5,0.5-1.7,0.7-2.3s0.3-1.2,0.5-1.7
		c0.2-0.8,0.5-1.5,0.7-2.3c0.2-0.5,0.4-0.9,0.7-1.4c0.1-0.1,0.3-0.2,0.4-0.3c0.4-0.1,0.7-0.2,1.1-0.3c0.3-0.1,0.4,0.2,0.4,0.4
		c0,0.4,0,0.8-0.1,1.2c0,0.3-0.1,1.4-0.1,1.6c0,0.5,0,1,0.1,1.5c0,0.4,0.2,2.5,0.5,2.9c0.1,0.2,0.4-0.3,0.5-0.4
		c0.1-0.3,0.4-1.2,0.4-1.6c0.2-1.1,0.7-4.1,0.8-4.9c0.1-0.3,0.5-3.6,0.6-4.1s0.1-1,0.8-1.2c0.4-0.1,0.8-0.2,1.2-0.3
		C46,5.3,46.2,5.5,46.2,6c-0.1,0.5-0.2,0.9-0.3,1.4c-0.2,0.9,0,1,0.3,1c0.4,0,0.7-0.1,1-0.2c0.1,0,1.5-0.4,2.1-0.5
		c0.4-0.1,0.3,0.3,0.3,0.4c0,0.2,0,0.4-0.2,0.5c-0.3,0.1-0.6,0.2-0.8,0.3s-1.1,0.4-1.3,0.4c-0.4,0.2-0.9,0.3-1.3,0.6
		c-0.1,0.1-0.1,0.5-0.2,0.7c0,0.5-0.1,1.1,0,1.6c0,1.8,0.4,4.3,0.5,4.8c0.1,0.7,0.3,1.2,0.5,1.9c0.1,0.4,0.6,1.9,0.7,2.2
		s0.7,2.2,0.9,3c0.1,0.3,0.1,0.7-0.2,0.9c-0.2,0.2-0.5,0.3-0.8,0.3c-0.3,0.1-0.6,0-0.8,0c-0.1,0-0.2-0.1-0.3-0.2
		c-0.2-0.6-0.4-1.3-0.6-1.9s-0.7-2.5-0.9-3c-0.1-0.2-0.4-1.2-0.5-1.4c0-0.1-0.1-0.2-0.2-0.3c0,0-0.1,0-0.2,0.1
		c-0.1,0.2-0.5,1.5-0.6,2.2c-0.1,0.6-0.2,0.9-0.4,1.3c-0.1,0.3-0.4,0.6-0.7,0.7C42,23,41.8,23,41.3,23c-0.1,0-0.4,0-0.6-0.4
		c-0.2-0.5-0.9-2.6-1-2.7c-0.2-0.5-0.4-1-0.5-1.5L39.1,18c-0.1,0-0.1,0.1-0.2,0.3c-0.4,0.7-0.5,1.6-0.8,2.3
		c-0.2,0.5-0.2,0.9-0.5,1.3c-0.3,0.5-0.8,0.8-1.4,0.9c-0.3,0-0.6,0-0.8-0.1s-0.6-0.9-0.6-1.1c-0.2-0.5-0.7-1.8-0.8-2.2
		c0-0.1-0.1-0.1-0.2,0c-0.2,0.3-0.5,0.6-0.7,0.9s-1,1.8-1.3,2.3c-0.3,0.6-0.9,0.7-1.5,0.7c-0.2,0-0.6,0-0.7-0.1
		c-0.2-0.2-0.2-0.2-0.3-0.5s-0.2-0.8-0.3-1.1s-0.3-1.8-0.4-2.2c0-0.1-0.2-0.7-0.2-0.6l-0.2,0.4c0,0.4-0.2,0.8-0.2,1.2
		c-0.1,0.6-0.4,1.6-0.6,2.2c-0.2,0.5-0.5,1.1-1.2,1.5c-0.3,0.1-0.8,0.2-1.1,0.3c-0.7,0.1-1.5-2.2-1.5-2.5c0-0.1-0.1-0.3-0.2-0.3
		s-0.1,0.2-0.1,0.3c-0.1,0.2-0.2,0.5-0.3,0.7c-0.3,0.6-0.6,1-1.2,1.2c-0.4,0.1-0.8,0.1-1.2,0.1s-0.6-0.5-0.9-1.1
		c-0.1-0.3-1.1-3.1-1.1-3.2h-0.1c0,0.1-0.1,0.3-0.1,0.4c0,0-0.4,1.4-0.5,1.9c-0.1,0.3-0.3,0.6-0.5,0.9c-0.4,0.6-0.9,0.7-1.6,0.6
		c-0.2,0-0.4-0.1-0.6-0.2c-0.1-0.1-0.4-1.2-0.5-1.3c0,0,0-0.2-0.1-0.2c0-0.1-0.1-0.1-0.1,0c-0.1,0.1-0.1,0.3-0.2,0.3
		c0,0-0.2,0.3-0.3,0.5c-0.2,0.3-0.3,0.6-0.5,1c-0.3,0.5-0.6,1.1-1.2,1.2s-1.1-0.1-1.6-0.4c-0.2-0.1-0.4-0.4-0.5-0.7
		c-0.3-0.6-0.6-1.6-0.6-2H9.5v0.1c-0.1,0.2-0.2,0.4-0.2,0.6C9.2,22.5,9.1,22.8,9,23c-0.3,0-0.7,0.6-1,0.7C7.7,23.9,7.2,24,6.9,24
		c-0.4,0-0.8,0.1-1-0.4c-0.2-0.4-0.2-0.6-0.5-1.3c-0.1-0.3-1.8-7.5-1.8-7.9c-0.1-0.5-0.4-1.6-0.4-1.8v-0.1C3.1,12,3,11.7,2.9,11.2
		c0-0.1-0.1-0.4-0.2-0.4s-0.1,0.4,0,0.6c0,1,0.1,1.5,0.1,2.5c0,0.5,0.2,2.6,0.2,3.3c0.1,0.7,0.1,1.3,0.2,2s0.3,3.3,0.3,3.8
		s0.1,1.5,0.1,2S2.4,25.6,2,25.6c-0.6,0.1-1-0.2-1.1-0.8s-0.2-1.3-0.2-1.9c0-0.5-0.4-9.2-0.4-9.8c0-0.5-0.1-4.9-0.1-5.5
		c0-0.4,0.5-0.4,0.6-0.8C1,6.6,1,6.4,1,6.1c0.1-0.7,0-0.9,0.4-1.2C1.8,4.7,3.2,4,3.6,4.3C3.9,4.4,4,4.8,4.1,5.1
		c0.2,0.6,1.1,4.3,1.1,4.6c0.1,0.4,1.6,8.5,1.7,8.9s0.2,0.9,0.4,1.2c0.1,0.1,0.1,0.1,0.2-0.3s0.2-1.3,0.2-1.4c0-0.4,0.1-2.6,0.1-2.9
		c0-0.7,0.5-6.5,0.6-6.8c0-0.5,0.1-1,0.3-1.4c0.1-0.2,0.2-0.5,0.4-0.6c0.4-0.3,0.8-0.5,1.3-0.7c0.4-0.2,1.1,0.2,1,0.6v2.8v3.6
		c0,3.1,0.3,5.1,0.3,5.4c0,0.5,0.1,0.9,0.2,1.1H12l0.1-0.1c0.4-1.5,0.9-5.8,0.9-6.2c0-0.6,0.2-2.3,0.2-2.6c0.1-0.3,0-0.5,0.1-0.8
		c0.1-0.2,0.2-0.5,0.4-0.6c0.2-0.2,0.5-0.4,0.8-0.6c0.2-0.1,0.4-0.2,0.6-0.3c0.5-0.3,1,0.2,1.1,0.8v2v1.5c0,0.4,0,0.7,0.1,1.1
		c0,0.1,0.1,0.1,0.1,0.1c0.1,0,0.1,0,0.2-0.1c0.1-0.2,0.1-0.5,0.2-0.7c0.1-0.4,0.2-0.8,0.3-1.2c0.1-0.3,0.1-0.6,0.2-0.9
		c0.1-0.5,0.5-0.7,1-0.9c0.4-0.2,0.7-0.3,1.1-0.4c0.1,0,0.3,0.1,0.5,0.2c0.1,0.1,0.2,0.3,0.3,0.4c0,0.4,0.1,0.7,0.1,1.1
		c0.1,0.7,0.4,5.2,0.8,6.2c0,0,0,0.1,0.1,0.1h0.1C21.2,17,21.3,15.8,21.3,15.7z"/>
	<path class="st0" d="M29.8,7.2c0.7-0.3,1,0.2,1,0.8v1.1c0,0.4-0.1,0.9-0.2,1.3c-0.2,0.4-0.6,0.4-1,0.4c-0.2,0-0.4,0-0.5-0.1
		c-0.2-0.2-0.2-0.3-0.3-0.5c-0.1-0.4-0.2-0.9-0.2-1.4c0-0.3,0.1-0.7,0.3-0.9C29.1,7.6,29.5,7.3,29.8,7.2z"/>
</g>
</svg>
