<?xml version="1.0" encoding="utf-8"?>
<!-- Generator: Adobe Illustrator 24.0.2, SVG Export Plug-In . SVG Version: 6.00 Build 0)  -->
<svg version="1.1" id="Layer_1" xmlns="http://www.w3.org/2000/svg" xmlns:xlink="http://www.w3.org/1999/xlink" x="0px" y="0px"
	 viewBox="0 0 250 68.1" style="enable-background:new 0 0 250 68.1;" xml:space="preserve">
<style type="text/css">
	.st0{fill:#FF0049;}
	.st1{fill:#FFFFFF;}
</style>
<rect class="st0" width="250" height="68.1"/>
<g>
	<path class="st1" d="M17.6,10.7c0.2-0.1,1-0.2,2.3-0.2c2.2,0,3.5,0.1,3.9,0.2c0.4,0.1,0.8,0.8,1.4,2c1.1,2.7,3.3,8.9,6.5,18.9
		c0.8,2.7,1.4,4.5,1.7,5.5l0.6,1.6c0.1,0,0.2-0.2,0.3-0.7c0-0.1,0.1-0.3,0.2-0.6c0.1-0.3,0.2-0.7,0.3-1.1c0.1-0.4,0.2-0.8,0.3-1.1
		c0.6-2.4,1.5-6.5,2.7-12.4c1.2-5.9,1.9-9.4,2.1-10.6c0.1-0.6,0.2-0.9,0.4-1.1c0.1-0.1,0.4-0.2,0.9-0.4c0.6-0.2,2-0.2,4.1-0.2l3,0.1
		l0.1,15.5c0.1,11,0.2,17.1,0.3,18.1c0.5,6.5,0.8,10.6,0.8,12.2v0.4c-0.2,0.4-1.9,0.5-5.2,0.5h-1c-1.3,0-2-0.1-2-0.3
		c-0.2-0.4-0.3-1.6-0.4-3.7c-0.1-0.5-0.1-1.1-0.1-1.7c0-0.6-0.1-1.1-0.1-1.4c0-0.3,0-0.5,0-0.5l-0.1-0.1c-0.1,0-0.5,1.4-1.2,4.3
		c-0.4,1.8-0.7,2.8-0.9,3c-0.1,0.1-0.5,0.2-1.2,0.2c-3,0.1-4.6,0.2-4.8,0.2c-1,0-1.6-0.1-1.8-0.2c-0.2-0.2-0.5-0.6-0.7-1.2
		c-0.3-0.7-1.6-4.3-3.7-11c-0.7-2.1-1.1-3.1-1.2-3.1c-0.1,0-0.1,0.2-0.1,0.5v0.4c0,1.1,0.1,2.8,0.2,5.1c0.2,2.3,0.3,3.5,0.4,3.8
		c0.2,0.4,0.2,1.7,0.2,3.9c0,0.9,0,1.4-0.1,1.5c-0.1,0.1-1.4,0.1-4.1,0.2l-4,0.1c-0.5-1-0.8-5-1.1-11.9c0-0.5-0.2-4.7-0.6-12.4
		c-0.4-7.8-0.6-13.3-0.6-16.4c0-0.4,0-0.9,0-1.5c0-0.6,0-1.1,0-1.3c0.1-1.9,0.4-2.9,0.9-2.9h0.2C17.1,10.8,17.4,10.8,17.6,10.7z
		 M45.3,44.3l0.1,0.2c0.1-0.2,0.1-0.3,0-0.3C45.3,44.1,45.3,44.2,45.3,44.3z M45.5,45.5c0.1,0.1,0.2,0.1,0.3,0
		c0.1-0.1,0.1-0.2-0.2-0.2C45.4,45.3,45.4,45.4,45.5,45.5z"/>
	<path class="st1" d="M56.9,10.7c0.2-0.1,1-0.2,2.3-0.2c2.2,0,3.5,0.1,3.9,0.2c0.4,0.1,0.8,0.8,1.4,2c1.1,2.7,3.3,8.9,6.5,18.9
		c0.8,2.7,1.4,4.5,1.7,5.5l0.6,1.6c0.1,0,0.2-0.2,0.3-0.7c0-0.1,0.1-0.3,0.2-0.6c0.1-0.3,0.2-0.7,0.3-1.1c0.1-0.4,0.2-0.8,0.3-1.1
		c0.6-2.4,1.5-6.5,2.7-12.4c1.2-5.9,1.9-9.4,2.1-10.6c0.1-0.6,0.2-0.9,0.4-1.1c0.1-0.1,0.4-0.2,0.9-0.4c0.6-0.2,2-0.2,4.1-0.2l3,0.1
		l0.1,15.5c0.1,11,0.2,17.1,0.3,18.1c0.5,6.5,0.8,10.6,0.8,12.2v0.4c-0.2,0.4-1.9,0.5-5.2,0.5h-1c-1.3,0-2-0.1-2-0.3
		c-0.2-0.4-0.3-1.6-0.4-3.7c-0.1-0.5-0.1-1.1-0.1-1.7c0-0.6-0.1-1.1-0.1-1.4c0-0.3,0-0.5,0-0.5l-0.1-0.1c-0.1,0-0.5,1.4-1.2,4.3
		c-0.4,1.8-0.7,2.8-0.9,3c-0.1,0.1-0.5,0.2-1.2,0.2c-3,0.1-4.6,0.2-4.8,0.2c-1,0-1.6-0.1-1.8-0.2c-0.2-0.2-0.5-0.6-0.7-1.2
		c-0.3-0.7-1.6-4.3-3.7-11c-0.7-2.1-1.1-3.1-1.2-3.1c-0.1,0-0.1,0.2-0.1,0.5v0.4c0,1.1,0.1,2.8,0.2,5.1c0.2,2.3,0.3,3.5,0.4,3.8
		c0.2,0.4,0.2,1.7,0.2,3.9c0,0.9,0,1.4-0.1,1.5c-0.1,0.1-1.4,0.1-4.1,0.2l-4,0.1c-0.5-1-0.8-5-1.1-11.9c0-0.5-0.2-4.7-0.6-12.4
		c-0.4-7.8-0.6-13.3-0.6-16.4c0-0.4,0-0.9,0-1.5c0-0.6,0-1.1,0-1.3c0.1-1.9,0.4-2.9,0.9-2.9h0.2C56.4,10.8,56.6,10.8,56.9,10.7z
		 M84.5,44.3l0.1,0.2c0.1-0.2,0.1-0.3,0-0.3C84.5,44.1,84.5,44.2,84.5,44.3z M84.7,45.5c0.1,0.1,0.2,0.1,0.3,0
		c0.1-0.1,0.1-0.2-0.2-0.2C84.7,45.3,84.6,45.4,84.7,45.5z"/>
	<path class="st1" d="M96.9,10.8h5.5l0.2,7.7c0.3,18.9,0.5,30.7,0.5,35.4c0,0.3,0,0.6,0,0.9c0,0.3,0,0.6,0,0.8c0,0.2,0,0.4,0,0.5
		c0,0.1,0,0.2,0,0.4v0.2c-0.2,0.2-1.5,0.2-4.1,0.2c-2.5,0-3.9-0.1-4.1-0.2c-0.4-0.5-0.6-13-0.6-37.3c0-5.2,0.1-7.8,0.2-8
		c0.1-0.1,0.5-0.2,1.2-0.3C96.3,10.9,96.8,10.8,96.9,10.8z"/>
	<path class="st1" d="M109.1,11.1c1.1-0.2,2.5-0.3,4.4-0.3l3,0.1c1.2,2,2.1,4.1,2.5,6.1c0.1,0.5,0.2,0.9,0.4,1
		c0.1,0.1,0.6,1.2,1.4,3.4c0.8,2.2,1.4,4,1.8,5.3c0.5,1.5,0.8,2.4,0.9,2.8c0.3,0.6,0.4,1.1,0.4,1.5c0,0.2,0.3,1,0.9,2.3l0.2,0.2
		c0.1,0,0.2-0.8,0.2-2.3c0-0.3,0-1.1,0-2.4c0-1.3,0-2.5,0-3.6c-0.1-6.8-0.2-10.5-0.2-11.3c0-0.2,0-0.5,0-0.9c0-0.4,0-0.6,0-0.7
		c0-0.9,0.1-1.5,0.4-1.7c0.2-0.3,0.7-0.4,1.4-0.5c0.9-0.2,2.4-0.2,4.5-0.2c1.3,0,2,0.1,2.1,0.2c0.2,0.3,0.4,8.3,0.6,24.1
		c0.1,6.2,0.2,9.6,0.2,10.1c0.2,2.5,0.2,4,0.2,4.6c0,0.5-0.1,0.8-0.2,0.9c-0.1,0.2-0.3,0.3-0.7,0.5c0.1,0.1,0.2,0.1,0.3,0.2
		c0.2,0.1,0.2,0.2,0.3,0.2c0,0.1,0.1,0.1,0.2,0.2s0.1,0.2,0.2,0.3c0,0.1,0.1,0.2,0.1,0.4c0,0.1,0,0.3,0,0.5c0,0.3,0,0.5,0,0.7
		c0,0.2,0,0.6,0,1.1v1.5c0,0.9-0.1,1.4-0.4,1.6c-0.4,0.2-2.4,0.3-5.9,0.3c-1.2,0-2.1,0-2.5-0.1l-1.6-0.1l-0.6-1.5
		c-0.4-0.8-1-2.2-1.7-4.1c-0.7-2-1.2-3.3-1.4-3.9c-0.1-0.3-0.4-1-0.7-2c-0.4-1-0.7-1.7-0.8-2.1c-0.5-1.5-0.8-2.2-0.9-2.1
		c-0.1,0.1-0.1,0.7,0,1.9c0.4,5.5,0.5,9,0.5,10.6v0.8l-0.1,2l-2.7,0.1h-2.8l-0.5-1.1c-0.1-0.1-0.2,0.1-0.2,0.5
		c0,0.3-0.2,0.4-0.5,0.5c-0.8,0.1-1.3,0.1-1.3,0c-0.1-0.1-0.2-1.4-0.4-4.1c-0.2-2.7-0.4-5.7-0.5-9.1c-0.2-3.4-0.3-6.2-0.3-8.3
		c0-1.4-0.1-5-0.3-10.7c-0.2-5.7-0.3-9.4-0.3-11c0-0.3,0-0.6,0.1-0.9v-0.5C108.8,11.4,109,11.1,109.1,11.1z"/>
	<path class="st1" d="M155.9,15.8c0.4,18.2,0.5,30.6,0.5,37.3v2.1V56l-1-0.1c-0.7-0.1-1-0.1-1.1,0.1c-0.1,0.2-1.4,0.2-4.1,0.2
		c-1.1,0-1.7,0-1.8-0.1c-0.3-0.2-0.5-4.3-0.6-12.2c0-1.4-0.1-6.4-0.3-15.1c-0.1-6-0.2-9.4-0.2-10.2l-0.2-3.2h-2
		c-1.7,0-2.8-0.1-3.4-0.2c-0.8-0.1-1.2-0.3-1.4-0.5c-0.2-0.2-0.2-0.9-0.2-2c0-1.5,0.4-2.4,1.1-2.6c0.2-0.1,1.2-0.1,3.2-0.2
		c2-0.1,3.9-0.1,5.7-0.2l2.8-0.1c0.1-0.1,0.7-0.1,2-0.1c2.5,0,3.8,0.1,4.1,0.2c0.3,0.1,0.9,0.2,1.8,0.3l1.6,0.2v5l-3.2,0.2
		L155.9,15.8z"/>
	<path class="st1" d="M168.7,45.3c0.6-0.1,1.4-0.1,2.3-0.1c1.1,0,1.8,0.1,2,0.2c0.3,0.3,0.4,3,0.4,8.2c0,1.9-0.1,2.9-0.2,3
		c-0.2,0.2-2.1,0.2-5.6,0.2c-1.5,0-2.2,0-2.3-0.1c-0.4-0.3-0.5-2.5-0.5-6.7c0-2,0.1-3.4,0.2-4C165,45.8,166.3,45.5,168.7,45.3z"/>
	<path class="st1" d="M194.7,10c0.1-0.1,0.4-0.1,0.9,0c0.7,0.2,1.4,0.2,2.1,0.2c0.5,0,0.8-0.1,0.9-0.2c0.1-0.1,0.3-0.1,0.5,0.2
		c0.3,0.3,0.7,0.3,1.4,0h0.1c0.4,0,0.6,4.3,0.6,13v10c0,1.9,0,4.1,0,6.7c0,2.6,0,4.5,0,5.8c0,1.3-0.1,2.6-0.1,4.1
		c0,1.5-0.1,2.6-0.1,3.3c-0.1,0.8-0.1,1.3-0.2,1.8c-0.2,1.3-0.7,2.1-1.4,2.5c-0.5,0.3-3.1,0.4-7.9,0.4c-4.7,0-7.4-0.1-7.9-0.2
		c-1-0.3-1.8-1-2.5-2.1c-0.5-0.9-0.9-2.2-1.1-3.8c-0.2-1.6-0.4-5.6-0.7-12.1c-0.4-8.4-0.5-15.6-0.5-21.5c0-3.3,0.1-5.4,0.2-6.2
		c0.1-0.4,0.3-0.7,0.5-0.8c0.1-0.1,1.5-0.1,4.3-0.2l3.9-0.1l0.2,10.9c0.3,16.5,0.7,25.8,1.3,27.9c0.2,0.7,0.6,1.3,1.1,1.8
		c0.5,0.5,0.9,0.8,1.3,0.8c0.3,0,0.5-0.3,0.6-1c0-0.1,0-0.3,0-0.8c0-0.5,0-1.2,0-2.1c0-0.9,0-1.9,0-2.8c0-1,0-2.9,0-5.7
		c0-2.8,0-5.1,0-6.8c0-3.6,0-7.3,0-11.2c0-3.9,0-6.1,0-6.6c0-2.9,0.1-4.3,0.2-4.4c0-0.1,0.4-0.1,1.2-0.2
		C194.2,10.1,194.7,10,194.7,10z"/>
	<path class="st1" d="M222.3,20.1c-0.6,0.2-1.1,0.3-1.6,0.3c-0.3,0-0.5,0.1-0.7,0.2c-0.1,0.1-0.5,0.3-1.5,0.5
		c-0.9,0.2-1.4,0.4-1.5,0.5c-0.1,0.2-0.5,0.3-1.3,0.4l-1.2,0.2v7.1c0,4.2,0.1,9.4,0.3,15.5c0.1,1.6,0.1,3.1,0.2,4.7
		c0.1,1.6,0.1,2.8,0.1,3.6c0,0.8,0,1.5,0,2c0,0.9-0.1,1.4-0.2,1.5c-0.1,0.1-1.4,0.1-3.9,0.2l-3.8,0.1l-0.2-0.5
		c-0.2-0.6-0.3-5.2-0.5-13.9c-0.2-8.7-0.2-16.2-0.2-22.7c0-4.7,0.1-7.4,0.2-7.9c0.2-0.5,0.5-0.8,0.8-0.8c0.3,0,0.6-0.1,0.8-0.2
		c0.2-0.1,1.3-0.2,3.2-0.2h3v2.4c0.1,1.5,0.2,2.4,0.4,2.6c0.2,0.2,0.3,0.2,0.4,0c0.1-0.2,0.3-0.2,0.6-0.2c0.3,0,0.5-0.1,0.5-0.2
		c0.1-0.1,0.9-0.4,2.7-1c1.7-0.5,2.8-0.8,3.1-0.8c0.2,0,0.6-0.1,1.1-0.4c1.6-0.8,2.8-1.3,3.6-1.3c1.5-0.2,3.9-0.3,7.4-0.3h0.4
		c0.1,0.1,0.2,1,0.2,2.7c0,1,0,1.5-0.1,1.6c-0.1,0.2-0.3,0.3-0.8,0.3c-0.4,0-1.1,0.2-2.1,0.6l-1.5,0.6l0.2,14.3
		c0.1,8.9,0.2,14.8,0.3,17.6c0.1,1.4,0.2,3,0.2,4.9c0,1.4-0.1,2.1-0.2,2.2c-0.2,0.3-1.7,0.4-4.5,0.4c-1,0-1.5-0.1-1.6-0.2
		c-0.1-0.2-0.3-0.2-0.8-0.1c-0.5,0.1-0.7,0-0.8-0.4c-0.3-1.7-0.5-9.2-0.7-22.7L222.3,20.1z"/>
</g>
</svg>
