<?xml version="1.0" encoding="utf-8"?>
<!-- Generator: Adobe Illustrator 24.0.2, SVG Export Plug-In . SVG Version: 6.00 Build 0)  -->
<svg version="1.1" id="Layer_1" xmlns="http://www.w3.org/2000/svg" xmlns:xlink="http://www.w3.org/1999/xlink" x="0px" y="0px"
	 viewBox="0 0 800 800" style="enable-background:new 0 0 800 800;" xml:space="preserve">
<style type="text/css">
	.st0{fill:#FFFFFF;}
</style>
<g>
	<rect width="800" height="800"/>
</g>
<path class="st0" d="M593.6,219.2h-46.4l0,0h-14.4l-54.4,126.4L424,219.2h-41.6l-56,126.4L272,219.2h-16l0,0h-48l0,0l0,0v361.6h46.4
	l0,0h14.4l54.4-126.4l54.4,126.4h41.6l56-126.4l54.4,126.4h16l0,0h48l0,0l0,0V219.2z M254.4,504V299.2l44.8,104L254.4,504z
	 M400,524.8L347.2,400L400,275.2l52.8,126.4L400,524.8z M500.8,398.4L545.6,296v204.8L500.8,398.4z"/>
</svg>
